<?xml version="1.0" encoding="UTF-8"?>
<svg width="756px" height="17px" viewBox="0 0 756 17" version="1.1" xmlns="http://www.w3.org/2000/svg" xmlns:xlink="http://www.w3.org/1999/xlink">
    <!-- Generator: Sketch 3.8.1 (29687) - http://www.bohemiancoding.com/sketch -->
    <title>Group 2</title>
    <desc>Created with Sketch.</desc>
    <defs></defs>
    <g id="Page-1" stroke="none" stroke-width="1" fill="none" fill-rule="evenodd">
        <g id="2" transform="translate(-351.000000, -340.000000)" stroke="#CFF4FF" stroke-width="5">
            <g id="Group-2" transform="translate(351.000000, 343.000000)">
                <path d="M126,0 C133.873463,0 133.873463,11.4146341 141.747366,11.4146341 C149.621268,11.4146341 149.621268,0 157.495171,0 C165.369951,0 165.369951,11.4146341 173.244732,11.4146341 C181.119512,11.4146341 181.119512,0 188.994732,0 C196.869951,0 196.869951,11.4146341 204.745171,11.4146341 C212.62039,11.4146341 212.62039,0 220.49561,0 C228.371707,0 228.371707,11.4146341 236.247805,11.4146341 C244.123902,11.4146341 244.123902,0 252,0" id="Page-1"></path>
                <path d="M0,0 C7.87346341,0 7.87346341,11.4146341 15.7473659,11.4146341 C23.6212683,11.4146341 23.6212683,0 31.4951707,0 C39.3699512,0 39.3699512,11.4146341 47.2447317,11.4146341 C55.1195122,11.4146341 55.1195122,0 62.9947317,0 C70.8699512,0 70.8699512,11.4146341 78.7451707,11.4146341 C86.6203902,11.4146341 86.6203902,0 94.4956098,0 C102.371707,0 102.371707,11.4146341 110.247805,11.4146341 C118.123902,11.4146341 118.123902,0 126,0" id="Page-1-Copy-5"></path>
                <path d="M378,0 C385.873463,0 385.873463,11.4146341 393.747366,11.4146341 C401.621268,11.4146341 401.621268,0 409.495171,0 C417.369951,0 417.369951,11.4146341 425.244732,11.4146341 C433.119512,11.4146341 433.119512,0 440.994732,0 C448.869951,0 448.869951,11.4146341 456.745171,11.4146341 C464.62039,11.4146341 464.62039,0 472.49561,0 C480.371707,0 480.371707,11.4146341 488.247805,11.4146341 C496.123902,11.4146341 496.123902,0 504,0" id="Page-1-Copy-2"></path>
                <path d="M252,0 C259.873463,0 259.873463,11.4146341 267.747366,11.4146341 C275.621268,11.4146341 275.621268,0 283.495171,0 C291.369951,0 291.369951,11.4146341 299.244732,11.4146341 C307.119512,11.4146341 307.119512,0 314.994732,0 C322.869951,0 322.869951,11.4146341 330.745171,11.4146341 C338.62039,11.4146341 338.62039,0 346.49561,0 C354.371707,0 354.371707,11.4146341 362.247805,11.4146341 C370.123902,11.4146341 370.123902,0 378,0" id="Page-1-Copy"></path>
                <path d="M504,0 C511.873463,0 511.873463,11.4146341 519.747366,11.4146341 C527.621268,11.4146341 527.621268,0 535.495171,0 C543.369951,0 543.369951,11.4146341 551.244732,11.4146341 C559.119512,11.4146341 559.119512,0 566.994732,0 C574.869951,0 574.869951,11.4146341 582.745171,11.4146341 C590.62039,11.4146341 590.62039,0 598.49561,0 C606.371707,0 606.371707,11.4146341 614.247805,11.4146341 C622.123902,11.4146341 622.123902,0 630,0" id="Page-1-Copy-3"></path>
                <path d="M630,0 C637.873463,0 637.873463,11.4146341 645.747366,11.4146341 C653.621268,11.4146341 653.621268,0 661.495171,0 C669.369951,0 669.369951,11.4146341 677.244732,11.4146341 C685.119512,11.4146341 685.119512,0 692.994732,0 C700.869951,0 700.869951,11.4146341 708.745171,11.4146341 C716.62039,11.4146341 716.62039,0 724.49561,0 C732.371707,0 732.371707,11.4146341 740.247805,11.4146341 C748.123902,11.4146341 748.123902,0 756,0" id="Page-1-Copy-4"></path>
            </g>
        </g>
    </g>
</svg>