<svg xmlns="http://www.w3.org/2000/svg" width="0" height="0" display="none">
  <symbol id="logo" viewBox="0 0 162 166.6">
    <title>Ptrsc Logo</title>
    <path stroke-width=".6" fill="none" d="M142.2,0.1v146.8H70.4c-20.2,0-36.7-16.4-36.7-36.7s16.4-36.7,36.7-36.7s36.7-16.4,36.7-36.7S90.7,0.2,70.4,0.2
    c0,0-70.2,0-70.2,0l0,146.8 M4,143.3L4,4.1c0,0,66.5,0,66.5,0c19.2,0,34.7,15.6,34.7,34.7S89.6,73.6,70.5,73.6s-34.7,15.6-34.7,34.7
    S51.3,143,70.5,143h68.1V3.8 M7.7,139.6l0-131.6c0,0,62.8,0,62.8,0c18.1,0,32.8,14.7,32.8,32.8S88.6,73.6,70.5,73.6
    s-32.8,14.7-32.8,32.8s14.7,32.8,32.8,32.8h64.3V7.6 M11.4,135.8l0-124c0,0,59.1,0,59.1,0c17.1,0,30.9,13.8,30.9,30.9
    S87.6,73.6,70.5,73.6s-30.9,13.8-30.9,30.9s13.8,30.9,30.9,30.9h60.6V11.3 M15.1,132l0-116.4c0,0,55.5,0,55.5,0c16,0,29,13,29,29
    s-13,29-29,29s-29,13-29,29s13,29,29,29h56.8V15.1 M18.8,128.3l0-108.9c0,0,51.8,0,51.8,0c14.9,0,27.1,12.1,27.1,27.1
    S85.6,73.6,70.6,73.6s-27.1,12.1-27.1,27.1s12.1,27.1,27.1,27.1h53V18.8 M22.6,124.5l0-101.3c0,0,48.1,0,48.1,0
    c13.9,0,25.1,11.3,25.1,25.1S84.6,73.6,70.7,73.6S45.5,84.8,45.5,98.7s11.3,25.1,25.1,25.1h49.3V22.6 M26.3,120.8l0-93.7
    c0,0,44.4,0,44.4,0c12.8,0,23.2,10.4,23.2,23.2S83.5,73.6,70.7,73.6S47.5,84,47.5,96.8S57.9,120,70.7,120h45.5V26.3 M30,117L30,31
    c0,0,40.8,0,40.8,0c11.8,0,21.3,9.5,21.3,21.3s-9.5,21.3-21.3,21.3s-21.3,9.5-21.3,21.3s9.5,21.3,21.3,21.3h41.7V30.1 M33.7,113.3
    l0-78.5c0,0,37.1,0,37.1,0c10.7,0,19.4,8.7,19.4,19.4s-8.7,19.4-19.4,19.4s-19.4,8.7-19.4,19.4s8.7,19.4,19.4,19.4h38V33.8
    M37.4,109.5l0-70.9c0,0,33.4,0,33.4,0c9.6,0,17.5,7.8,17.5,17.5s-7.8,17.5-17.5,17.5S53.4,81.4,53.4,91s7.8,17.5,17.5,17.5h34.2
    V37.5 M41.2,105.8l0-63.3c0,0,29.7,0,29.7,0c8.6,0,15.5,7,15.5,15.5s-7,15.5-15.5,15.5s-15.5,7-15.5,15.5s7,15.5,15.5,15.5h30.4
    V41.3 M44.9,102l0-55.7c0,0,26.1,0,26.1,0c7.5,0,13.6,6.1,13.6,13.6s-6.1,13.6-13.6,13.6s-13.6,6.1-13.6,13.6s6.1,13.6,13.6,13.6
    h26.7V45 M48.6,98.3l0-48.1c0,0,22.4,0,22.4,0c6.5,0,11.7,5.2,11.7,11.7S77.4,73.5,71,73.5c-6.5,0-11.7,5.2-11.7,11.7
    c0,6.5,5.2,11.7,11.7,11.7h22.9V48.8 M52.3,94.5l0-40.5c0,0,18.7,0,18.7,0c5.4,0,9.8,4.4,9.8,9.8s-4.4,9.8-9.8,9.8s-9.8,4.4-9.8,9.8
    s4.4,9.8,9.8,9.8h19.2V52.5 M56,90.8l0-33c0,0,15,0,15,0c4.3,0,7.9,3.5,7.9,7.9s-3.5,7.9-7.9,7.9s-7.9,3.5-7.9,7.9s3.5,7.9,7.9,7.9
    h15.4v-33 M59.8,87l0-25.4c0,0,11.4,0,11.4,0c3.3,0,5.9,2.7,5.9,5.9c0,3.3-2.7,5.9-5.9,5.9c-3.3,0-5.9,2.7-5.9,5.9s2.7,5.9,5.9,5.9
    h11.6V60"/>
  </symbol>

  <symbol id="facebook" viewBox="0 0 51 51">
    <title>Facebook icon</title>
    <circle class="st0" cx="25.5" cy="25.5" r="25" stroke="currentColor" stroke-width="1" fill="none"/>
    <path fill="currentColor" d="M27.3,36.5v-11h3.3l0.4-3.8h-3.7l0-1.9c0-1,0.1-1.5,1.6-1.5h2v-3.8h-3.3c-3.9,0-5.3,1.8-5.3,4.9v2.3H20v3.8h2.4v11H27.3z"/>
  </symbol>

  <symbol id="twitter" viewBox="0 0 51 51">
    <title>Twitter icon</title>
    <circle class="st0" cx="25.5" cy="25.5" r="25" stroke="currentColor" stroke-width="1" fill="none"/>
    <path fill="currentColor" d="M25.2,21.1l0,0.8l-0.8-0.1c-2.9-0.4-5.4-1.7-7.6-3.9l-1-1.1l-0.3,0.8c-0.6,1.8-0.2,3.7,1,5c0.6,0.7,0.5,0.8-0.6,0.4 c-0.4-0.1-0.7-0.2-0.7-0.2c-0.1,0.1,0.3,1.6,0.6,2.2c0.4,0.8,1.3,1.7,2.2,2.1l0.8,0.4l-0.9,0c-0.9,0-0.9,0-0.8,0.4
    c0.3,1.1,1.6,2.2,3,2.8l1,0.4l-0.9,0.5c-1.3,0.8-2.8,1.2-4.3,1.2c-0.7,0-1.3,0.1-1.3,0.1c0,0.2,1.9,1.1,3.1,1.5
    C21,35.5,25,35,28,33.2c2.1-1.3,4.3-4,5.3-6.5c0.5-1.4,1.1-3.8,1.1-5c0-0.8,0-0.9,0.9-1.8c0.5-0.5,1-1.1,1.1-1.3
    c0.2-0.3,0.1-0.3-0.7,0c-1.4,0.5-1.5,0.4-0.9-0.3c0.5-0.5,1.1-1.5,1.1-1.8c0-0.1-0.2,0-0.5,0.2c-0.3,0.2-0.9,0.4-1.4,0.6l-0.9,0.3
l-0.8-0.6c-0.4-0.3-1-0.6-1.4-0.7c-0.8-0.2-2.1-0.2-2.8,0.1C26.3,17,25,18.9,25.2,21.1L25.2,21.1z"/>
  </symbol>

  <symbol id="instagram" viewBox="0 0 51 51">
    <title>Instagram icon</title>
    <circle class="st0" cx="25.5" cy="25.5" r="25" stroke="currentColor" stroke-width="1" fill="none"/>
    <path fill="currentColor" d="M36.5,16c-0.2-1-1-1.8-2-2c0,0-0.1,0-0.1,0H16.7c-0.1,0-0.2,0-0.3,0.1c-1,0.2-1.7,1.1-1.8,2.1c0,0,0,0.1,0,0.1v18.5
    c0,0.1,0,0.2,0.1,0.4c0.2,1,1,1.8,2,1.9c0,0,0.1,0,0.1,0h17.6c0.1,0,0.2,0,0.3-0.1c0.9-0.2,1.6-1,1.8-1.9c0-0.1,0-0.2,0-0.3V16.3
    C36.5,16.2,36.5,16.1,36.5,16z M31.1,15.9c0.7,0,1.4,0,2.1,0c0.5,0,0.9,0.4,0.9,0.9c0,0.7,0,1.5,0,2.2c0,0.5-0.4,0.9-0.8,0.9
    c-0.4,0-0.7,0-1.1,0c-0.3,0-0.7,0-1,0c-0.4,0-0.7-0.2-0.9-0.6c0-0.1-0.1-0.2-0.1-0.3c0-0.7,0-1.4,0-2.2
    C30.3,16.3,30.7,15.9,31.1,15.9z M25.5,20.8c2.5,0,4.5,2.2,4.5,4.8c-0.1,2.5-2.1,4.6-4.6,4.6C23,30.1,21,28,21,25.4
    C21.1,22.9,23.1,20.8,25.5,20.8z M34.1,23.4c0,3.4,0,6.8,0,10.2c0,0.5-0.4,0.9-0.9,0.9c-5.2,0-10.3,0-15.5,0c-0.5,0-0.9-0.4-0.9-0.9
    c0-3.4,0-6.8,0-10.2v-0.1c0.7,0,1.4,0,2.1,0c-0.5,1.9-0.4,3.8,0.5,5.6c0.6,1.2,1.5,2.1,2.7,2.8c2.3,1.3,5,1.2,7.2-0.3
    c0.8-0.6,1.5-1.3,2-2.2c0.5-0.9,0.8-1.8,0.9-2.9c0.1-1,0-2-0.3-3L34.1,23.4L34.1,23.4z"/>
  </symbol>

</svg>
