<svg width="1120" height="733" viewBox="0 0 1120 733" fill="none" xmlns="http://www.w3.org/2000/svg">
<g clip-path="url(#clip0)">
<rect width="1120" height="733"/>
<mask id="mask0" mask-type="alpha" maskUnits="userSpaceOnUse" x="0" y="-114" width="560" height="948">
<rect y="-114" width="560" height="948" fill="#C4C4C4"/>
</mask>
<g mask="url(#mask0)">
<path d="M-99.6418 34.5866L-86.1594 31.2722C-65.0793 26.09 -42.8062 29.4256 -24.1691 40.5559L-19.0679 43.6024C10.6473 61.3487 48.6498 56.4384 72.8784 31.7221V31.7221C98.3258 5.7625 138.733 1.80811 168.731 22.3418L187.689 35.3187C218.232 56.2258 258.788 54.9844 287.995 32.2486V32.2486C317.681 9.13994 359.02 8.27404 389.648 30.1193L394.509 33.5862C427.207 56.9085 471.33 56.0304 503.074 31.4256V31.4256C530.201 10.3996 566.853 6.42926 597.853 21.1584L656.316 48.9357" stroke="black" stroke-width="20"/>
<path d="M-97.5442 61.9186L-84.0618 58.6042C-62.9817 53.422 -40.7085 56.7577 -22.0714 67.888L-16.9703 70.9345C12.7449 88.6807 50.7474 83.7705 74.976 59.0542V59.0542C100.423 33.0945 140.831 29.1401 170.829 49.6738L189.786 62.6507C220.329 83.5578 260.886 82.3165 290.093 59.5806V59.5806C319.779 36.472 361.118 35.6061 391.746 57.4513L396.606 60.9182C429.305 84.2405 473.427 83.3624 505.172 58.7576V58.7576C532.299 37.7316 568.95 33.7613 599.951 48.4904L658.414 76.2677" stroke="white" stroke-width="20"/>
<path d="M-96.0793 117.52L-82.5969 114.206C-61.5168 109.024 -39.2437 112.359 -20.6066 123.49L-15.5054 126.536C14.2098 144.282 52.2123 139.372 76.4409 114.656V114.656C101.888 88.6961 142.296 84.7417 172.293 105.275L191.251 118.252C221.794 139.159 262.35 137.918 291.558 115.182V115.182C321.244 92.0735 362.583 91.2076 393.21 113.053L398.071 116.52C430.769 139.842 474.892 138.964 506.637 114.359V114.359C533.764 93.3332 570.415 89.3629 601.416 104.092L659.879 131.869" stroke="white" stroke-width="20"/>
<path d="M-97.2747 89.2663L-83.7923 85.9519C-62.7122 80.7697 -40.439 84.1053 -21.8019 95.2356L-16.7007 98.2821C13.0144 116.028 51.017 111.118 75.2456 86.4018V86.4018C100.693 60.4422 141.101 56.4878 171.098 77.0215L190.056 89.9983C220.599 110.905 261.155 109.664 290.362 86.9282V86.9282C320.048 63.8196 361.387 62.9537 392.015 84.799L396.876 88.2659C429.574 111.588 473.697 110.71 505.441 86.1053V86.1053C532.569 65.0793 569.22 61.1089 600.22 75.8381L658.684 103.615" stroke="black" stroke-width="20"/>
<path d="M-101.279 144.919L-87.7962 141.604C-66.7161 136.422 -44.4429 139.758 -25.8058 150.888L-20.7046 153.934C9.01054 171.681 47.013 166.77 71.2417 142.054V142.054C96.6891 116.095 137.097 112.14 167.094 132.674L186.052 145.651C216.595 166.558 257.151 165.316 286.358 142.581V142.581C316.044 119.472 357.384 118.606 388.011 140.451L392.872 143.918C425.57 167.241 469.693 166.362 501.437 141.758V141.758C528.565 120.732 565.216 116.761 596.216 131.49L654.68 159.268" stroke="black" stroke-width="20"/>
<path d="M-103.732 173.212L-90.2493 169.897C-69.1692 164.715 -46.896 168.051 -28.2589 179.181L-23.1578 182.227C6.55741 199.974 44.5599 195.063 68.7885 170.347V170.347C94.236 144.387 134.644 140.433 164.641 160.967L183.599 173.944C214.142 194.851 254.698 193.609 283.905 170.874V170.874C313.591 147.765 354.93 146.899 385.558 168.744L390.419 172.211C423.117 195.533 467.24 194.655 498.984 170.051V170.051C526.111 149.025 562.763 145.054 593.763 159.783L652.227 187.561" stroke="white" stroke-width="20"/>
<path d="M-102.271 228.809L-88.7883 225.495C-67.7083 220.313 -45.4351 223.648 -26.798 234.779L-21.6968 237.825C8.01835 255.571 46.0209 250.661 70.2495 225.945V225.945C95.6969 199.985 136.105 196.031 166.102 216.564L185.06 229.541C215.603 250.448 256.159 249.207 285.366 226.471V226.471C315.052 203.363 356.391 202.497 387.019 224.342L391.88 227.809C424.578 251.131 468.701 250.253 500.445 225.648V225.648C527.572 204.622 564.224 200.652 595.224 215.381L653.688 243.158" stroke="white" stroke-width="20"/>
<path d="M-103.462 200.555L-89.9798 197.241C-68.8997 192.059 -46.6265 195.394 -27.9894 206.525L-22.8882 209.571C6.82694 227.317 44.8295 222.407 69.0581 197.691V197.691C94.5055 171.731 134.913 167.777 164.911 188.311L183.868 201.287C214.411 222.195 254.968 220.953 284.175 198.217V198.217C313.861 175.109 355.2 174.243 385.828 196.088L390.688 199.555C423.387 222.877 467.509 221.999 499.254 197.394V197.394C526.381 176.368 563.032 172.398 594.033 187.127L652.496 214.904" stroke="black" stroke-width="20"/>
<path d="M-107.466 256.208L-93.9837 252.893C-72.9036 247.711 -50.6304 251.047 -31.9933 262.177L-26.8921 265.224C2.82304 282.97 40.8255 278.06 65.0542 253.343V253.343C90.5016 227.384 130.909 223.429 160.907 243.963L179.864 256.94C210.407 277.847 250.964 276.606 280.171 253.87V253.87C309.857 230.761 351.196 229.895 381.824 251.74L386.684 255.207C419.383 278.53 463.505 277.651 495.25 253.047V253.047C522.377 232.021 559.028 228.05 590.029 242.779L648.492 270.557" stroke="black" stroke-width="20"/>
<path d="M-104.45 284.446L-90.968 281.132C-69.8879 275.949 -47.6148 279.285 -28.9777 290.415L-23.8765 293.462C5.83866 311.208 43.8412 306.298 68.0698 281.582V281.582C93.5172 255.622 133.925 251.667 163.922 272.201L182.88 285.178C213.423 306.085 253.979 304.844 283.186 282.108V282.108C312.872 258.999 354.212 258.133 384.839 279.979L389.7 283.446C422.398 306.768 466.521 305.89 498.265 281.285V281.285C525.393 260.259 562.044 256.289 593.045 271.018L651.508 298.795" stroke="white" stroke-width="20"/>
<path d="M-102.978 340.051L-89.4954 336.737C-68.4153 331.555 -46.1421 334.89 -27.505 346.021L-22.4039 349.067C7.31132 366.814 45.3138 361.903 69.5425 337.187V337.187C94.9899 311.227 135.398 307.273 165.395 327.807L184.353 340.784C214.896 361.691 255.452 360.449 284.659 337.713V337.713C314.345 314.605 355.684 313.739 386.312 335.584L391.173 339.051C423.871 362.373 467.994 361.495 499.738 336.89V336.89C526.865 315.864 563.517 311.894 594.517 326.623L652.981 354.401" stroke="white" stroke-width="20"/>
<path d="M-104.169 311.798L-90.6868 308.483C-69.6067 303.301 -47.3335 306.637 -28.6964 317.767L-23.5953 320.813C6.11991 338.56 44.1224 333.649 68.351 308.933V308.933C93.7985 282.973 134.206 279.019 164.204 299.553L183.161 312.53C213.704 333.437 254.261 332.195 283.468 309.459V309.459C313.154 286.351 354.493 285.485 385.121 307.33L389.981 310.797C422.68 334.119 466.802 333.241 498.547 308.637V308.637C525.674 287.611 562.325 283.64 593.326 298.369L651.789 326.147" stroke="black" stroke-width="20"/>
<path d="M-108.177 367.45L-94.6946 364.135C-73.6145 358.953 -51.3413 362.289 -32.7042 373.419L-27.6031 376.466C2.1121 394.212 40.1146 389.302 64.3432 364.585V364.585C89.7907 338.626 130.198 334.671 160.196 355.205L179.153 368.182C209.696 389.089 250.253 387.848 279.46 365.112V365.112C309.146 342.003 350.485 341.137 381.113 362.983L385.973 366.449C418.672 389.772 462.794 388.894 494.539 364.289V364.289C521.666 343.263 558.317 339.293 589.318 354.022L647.781 381.799" stroke="black" stroke-width="20"/>
<path d="M-103.357 393.844L-89.8743 390.53C-68.7942 385.348 -46.521 388.683 -27.8839 399.814L-22.7828 402.86C6.93241 420.607 44.9349 415.696 69.1635 390.98V390.98C94.611 365.02 135.019 361.066 165.016 381.6L183.974 394.576C214.517 415.484 255.073 414.242 284.28 391.506V391.506C313.966 368.398 355.305 367.532 385.933 389.377L390.794 392.844C423.492 416.166 467.615 415.288 499.359 390.683V390.683C526.486 369.657 563.138 365.687 594.138 380.416L652.602 408.194" stroke="white" stroke-width="20"/>
<path d="M-101.888 449.442L-88.4055 446.128C-67.3254 440.945 -45.0523 444.281 -26.4152 455.411L-21.314 458.458C8.40116 476.204 46.4037 471.294 70.6323 446.578V446.578C96.0797 420.618 136.487 416.664 166.485 437.197L185.443 450.174C215.985 471.081 256.542 469.84 285.749 447.104V447.104C315.435 423.995 356.774 423.13 387.402 444.975L392.262 448.442C424.961 471.764 469.083 470.886 500.828 446.281V446.281C527.955 425.255 564.606 421.285 595.607 436.014L654.07 463.791" stroke="white" stroke-width="20"/>
<path d="M-103.087 421.188L-89.6048 417.874C-68.5247 412.692 -46.2515 416.027 -27.6144 427.158L-22.5132 430.204C7.20194 447.95 45.2045 443.04 69.4331 418.324V418.324C94.8805 392.364 135.288 388.41 165.286 408.943L184.243 421.92C214.786 442.827 255.343 441.586 284.55 418.85V418.85C314.236 395.742 355.575 394.876 386.203 416.721L391.063 420.188C423.762 443.51 467.884 442.632 499.629 418.027V418.027C526.756 397.001 563.407 393.031 594.408 407.76L652.871 435.537" stroke="black" stroke-width="20"/>
<path d="M-107.083 476.844L-93.6008 473.53C-72.5208 468.348 -50.2476 471.683 -31.6105 482.814L-26.5093 485.86C3.20585 503.607 41.2084 498.696 65.437 473.98V473.98C90.8844 448.02 131.292 444.066 161.289 464.6L180.247 477.576C210.79 498.484 251.346 497.242 280.554 474.506V474.506C310.24 451.398 351.579 450.532 382.206 472.377L387.067 475.844C419.765 499.166 463.888 498.288 495.633 473.683V473.683C522.76 452.657 559.411 448.687 590.412 463.416L648.875 491.194" stroke="black" stroke-width="20"/>
<path d="M-109.54 505.13L-96.0579 501.815C-74.9778 496.633 -52.7046 499.969 -34.0675 511.099L-28.9664 514.145C0.748818 531.892 38.7513 526.981 62.98 502.265V502.265C88.4274 476.305 128.835 472.351 158.832 492.885L177.79 505.862C208.333 526.769 248.889 525.527 278.097 502.792V502.792C307.783 479.683 349.122 478.817 379.749 500.662L384.61 504.129C417.308 527.451 461.431 526.573 493.176 501.969V501.969C520.303 480.943 556.954 476.972 587.955 491.701L646.418 519.479" stroke="white" stroke-width="20"/>
<path d="M-108.075 560.735L-94.593 557.421C-73.5129 552.238 -51.2398 555.574 -32.6027 566.704L-27.5015 569.751C2.21366 587.497 40.2162 582.587 64.4448 557.871V557.871C89.8922 531.911 130.3 527.957 160.297 548.49L179.255 561.467C209.798 582.374 250.354 581.133 279.561 558.397V558.397C309.247 535.288 350.587 534.422 381.214 556.268L386.075 559.735C418.773 583.057 462.896 582.179 494.64 557.574V557.574C521.768 536.548 558.419 532.578 589.42 547.307L647.883 575.084" stroke="white" stroke-width="20"/>
<path d="M-109.267 532.477L-95.7844 529.163C-74.7043 523.981 -52.4312 527.316 -33.7941 538.447L-28.6929 541.493C1.02226 559.239 39.0248 554.329 63.2534 529.613V529.613C88.7008 503.653 129.108 499.699 159.106 520.232L178.064 533.209C208.607 554.116 249.163 552.875 278.37 530.139V530.139C308.056 507.031 349.395 506.165 380.023 528.01L384.884 531.477C417.582 554.799 461.705 553.921 493.449 529.316V529.316C520.576 508.29 557.228 504.32 588.228 519.049L646.691 546.826" stroke="black" stroke-width="20"/>
<path d="M-113.275 588.141L-99.7923 584.827C-78.7122 579.645 -56.439 582.98 -37.8019 594.111L-32.7007 597.157C-2.98556 614.903 35.017 609.993 59.2456 585.277V585.277C84.693 559.317 125.101 555.363 155.098 575.896L174.056 588.873C204.599 609.78 245.155 608.539 274.362 585.803V585.803C304.048 562.695 345.387 561.829 376.015 583.674L380.876 587.141C413.574 610.463 457.697 609.585 489.441 584.98V584.98C516.569 563.954 553.22 559.984 584.22 574.713L642.684 602.49" stroke="black" stroke-width="20"/>
<path d="M-110.255 616.368L-96.7727 613.053C-75.6926 607.871 -53.4195 611.207 -34.7824 622.337L-29.6812 625.384C0.0339744 643.13 38.0365 638.22 62.2651 613.503V613.503C87.7125 587.544 128.12 583.589 158.118 604.123L177.075 617.1C207.618 638.007 248.175 636.766 277.382 614.03V614.03C307.068 590.921 348.407 590.055 379.035 611.901L383.895 615.367C416.594 638.69 460.716 637.812 492.461 613.207V613.207C519.588 592.181 556.239 588.211 587.24 602.94L645.703 630.717" stroke="white" stroke-width="20"/>
<path d="M-108.79 671.973L-95.3079 668.659C-74.2278 663.477 -51.9546 666.812 -33.3175 677.943L-28.2164 680.989C1.49882 698.735 39.5013 693.825 63.73 669.109V669.109C89.1774 643.149 129.585 639.195 159.582 659.728L178.54 672.705C209.083 693.612 249.639 692.371 278.847 669.635V669.635C308.533 646.527 349.872 645.661 380.499 667.506L385.36 670.973C418.058 694.295 462.181 693.417 493.926 668.812V668.812C521.053 647.786 557.704 643.816 588.705 658.545L647.168 686.322" stroke="white" stroke-width="20"/>
<path d="M-109.986 643.719L-96.5032 640.405C-75.4231 635.223 -53.1499 638.558 -34.5128 649.689L-29.4117 652.735C0.303506 670.482 38.306 665.571 62.5346 640.855V640.855C87.9821 614.895 128.39 610.941 158.387 631.475L177.345 644.451C207.888 665.359 248.444 664.117 277.651 641.381V641.381C307.337 618.273 348.677 617.407 379.304 639.252L384.165 642.719C416.863 666.041 460.986 665.163 492.73 640.558V640.558C519.858 619.532 556.509 615.562 587.509 630.291L645.973 658.069" stroke="black" stroke-width="20"/>
<path d="M-113.986 699.376L-100.503 696.061C-79.4231 690.879 -57.1499 694.215 -38.5128 705.345L-33.4117 708.391C-3.69649 726.138 34.306 721.227 58.5346 696.511V696.511C83.9821 670.552 124.39 666.597 154.387 687.131L173.345 700.108C203.888 721.015 244.444 719.773 273.651 697.038V697.038C303.337 673.929 344.677 673.063 375.304 694.908L380.165 698.375C412.863 721.698 456.986 720.819 488.73 696.215V696.215C515.858 675.189 552.509 671.218 583.509 685.947L641.973 713.725" stroke="black" stroke-width="20"/>
</g>
<mask id="mask1" mask-type="alpha" maskUnits="userSpaceOnUse" x="560" y="-114" width="560" height="948">
<rect width="560" height="948" transform="matrix(-1 0 0 1 1120 -114)" fill="#C4C4C4"/>
</mask>
<g mask="url(#mask1)">
<path d="M1219.64 34.5866L1206.16 31.2722C1185.08 26.09 1162.81 29.4256 1144.17 40.5559L1139.07 43.6024C1109.35 61.3487 1071.35 56.4384 1047.12 31.7221V31.7221C1021.67 5.7625 981.267 1.80811 951.269 22.3418L932.311 35.3187C901.768 56.2258 861.212 54.9844 832.005 32.2486V32.2486C802.319 9.13994 760.98 8.27404 730.352 30.1193L725.491 33.5862C692.793 56.9085 648.67 56.0304 616.926 31.4256V31.4256C589.799 10.3996 553.147 6.42926 522.147 21.1584L463.684 48.9357" stroke="black" stroke-width="20"/>
<path d="M1217.54 61.9186L1204.06 58.6042C1182.98 53.422 1160.71 56.7577 1142.07 67.888L1136.97 70.9345C1107.26 88.6807 1069.25 83.7705 1045.02 59.0542V59.0542C1019.58 33.0945 979.169 29.1401 949.171 49.6738L930.214 62.6507C899.671 83.5578 859.114 82.3165 829.907 59.5806V59.5806C800.221 36.472 758.882 35.6061 728.254 57.4513L723.394 60.9182C690.695 84.2405 646.573 83.3624 614.828 58.7576V58.7576C587.701 37.7316 551.05 33.7613 520.049 48.4904L461.586 76.2677" stroke="white" stroke-width="20"/>
<path d="M1216.08 117.52L1202.6 114.206C1181.52 109.024 1159.24 112.359 1140.61 123.49L1135.51 126.536C1105.79 144.282 1067.79 139.372 1043.56 114.656V114.656C1018.11 88.6961 977.704 84.7417 947.707 105.275L928.749 118.252C898.206 139.159 857.65 137.918 828.442 115.182V115.182C798.756 92.0735 757.417 91.2076 726.79 113.053L721.929 116.52C689.231 139.842 645.108 138.964 613.363 114.359V114.359C586.236 93.3332 549.585 89.3629 518.584 104.092L460.121 131.869" stroke="white" stroke-width="20"/>
<path d="M1217.27 89.2663L1203.79 85.9519C1182.71 80.7697 1160.44 84.1053 1141.8 95.2356L1136.7 98.2821C1106.99 116.028 1068.98 111.118 1044.75 86.4018V86.4018C1019.31 60.4422 978.899 56.4878 948.902 77.0215L929.944 89.9983C899.401 110.905 858.845 109.664 829.638 86.9282V86.9282C799.952 63.8196 758.613 62.9537 727.985 84.799L723.124 88.2659C690.426 111.588 646.303 110.71 614.559 86.1053V86.1053C587.431 65.0793 550.78 61.1089 519.78 75.8381L461.316 103.615" stroke="black" stroke-width="20"/>
<path d="M1221.28 144.919L1207.8 141.604C1186.72 136.422 1164.44 139.758 1145.81 150.888L1140.7 153.934C1110.99 171.681 1072.99 166.77 1048.76 142.054V142.054C1023.31 116.095 982.903 112.14 952.906 132.674L933.948 145.651C903.405 166.558 862.849 165.316 833.642 142.581V142.581C803.956 119.472 762.616 118.606 731.989 140.451L727.128 143.918C694.43 167.241 650.307 166.362 618.563 141.758V141.758C591.435 120.732 554.784 116.761 523.784 131.49L465.32 159.268" stroke="black" stroke-width="20"/>
<path d="M1223.73 173.212L1210.25 169.897C1189.17 164.715 1166.9 168.051 1148.26 179.181L1143.16 182.227C1113.44 199.974 1075.44 195.063 1051.21 170.347V170.347C1025.76 144.387 985.356 140.433 955.359 160.967L936.401 173.944C905.858 194.851 865.302 193.609 836.095 170.874V170.874C806.409 147.765 765.07 146.899 734.442 168.744L729.581 172.211C696.883 195.533 652.76 194.655 621.016 170.051V170.051C593.889 149.025 557.237 145.054 526.237 159.783L467.773 187.561" stroke="white" stroke-width="20"/>
<path d="M1222.27 228.809L1208.79 225.495C1187.71 220.313 1165.44 223.648 1146.8 234.779L1141.7 237.825C1111.98 255.571 1073.98 250.661 1049.75 225.945V225.945C1024.3 199.985 983.895 196.031 953.898 216.564L934.94 229.541C904.397 250.448 863.841 249.207 834.634 226.471V226.471C804.948 203.363 763.609 202.497 732.981 224.342L728.12 227.809C695.422 251.131 651.299 250.253 619.555 225.648V225.648C592.428 204.622 555.776 200.652 524.776 215.381L466.312 243.158" stroke="white" stroke-width="20"/>
<path d="M1223.46 200.555L1209.98 197.241C1188.9 192.059 1166.63 195.394 1147.99 206.525L1142.89 209.571C1113.17 227.317 1075.17 222.407 1050.94 197.691V197.691C1025.49 171.731 985.087 167.777 955.089 188.311L936.132 201.287C905.589 222.195 865.032 220.953 835.825 198.217V198.217C806.139 175.109 764.8 174.243 734.172 196.088L729.312 199.555C696.613 222.877 652.491 221.999 620.746 197.394V197.394C593.619 176.368 556.968 172.398 525.967 187.127L467.504 214.904" stroke="black" stroke-width="20"/>
<path d="M1227.47 256.208L1213.98 252.893C1192.9 247.711 1170.63 251.047 1151.99 262.177L1146.89 265.224C1117.18 282.97 1079.17 278.06 1054.95 253.343V253.343C1029.5 227.384 989.091 223.429 959.093 243.963L940.136 256.94C909.593 277.847 869.036 276.606 839.829 253.87V253.87C810.143 230.761 768.804 229.895 738.176 251.74L733.316 255.207C700.617 278.53 656.495 277.651 624.75 253.047V253.047C597.623 232.021 560.972 228.05 529.971 242.779L471.508 270.557" stroke="black" stroke-width="20"/>
<path d="M1224.45 284.446L1210.97 281.132C1189.89 275.949 1167.61 279.285 1148.98 290.415L1143.88 293.462C1114.16 311.208 1076.16 306.298 1051.93 281.582V281.582C1026.48 255.622 986.075 251.667 956.078 272.201L937.12 285.178C906.577 306.085 866.021 304.844 836.814 282.108V282.108C807.128 258.999 765.788 258.133 735.161 279.979L730.3 283.446C697.602 306.768 653.479 305.89 621.735 281.285V281.285C594.607 260.259 557.956 256.289 526.955 271.018L468.492 298.795" stroke="white" stroke-width="20"/>
<path d="M1222.98 340.051L1209.5 336.737C1188.42 331.555 1166.14 334.89 1147.51 346.021L1142.4 349.067C1112.69 366.814 1074.69 361.903 1050.46 337.187V337.187C1025.01 311.227 984.602 307.273 954.605 327.807L935.647 340.784C905.104 361.691 864.548 360.449 835.341 337.713V337.713C805.655 314.605 764.316 313.739 733.688 335.584L728.827 339.051C696.129 362.373 652.006 361.495 620.262 336.89V336.89C593.135 315.864 556.483 311.894 525.483 326.623L467.019 354.401" stroke="white" stroke-width="20"/>
<path d="M1224.17 311.798L1210.69 308.483C1189.61 303.301 1167.33 306.637 1148.7 317.767L1143.6 320.813C1113.88 338.56 1075.88 333.649 1051.65 308.933V308.933C1026.2 282.973 985.794 279.019 955.796 299.553L936.839 312.53C906.296 333.437 865.739 332.195 836.532 309.459V309.459C806.846 286.351 765.507 285.485 734.879 307.33L730.019 310.797C697.32 334.119 653.198 333.241 621.453 308.637V308.637C594.326 287.611 557.675 283.64 526.674 298.369L468.211 326.147" stroke="black" stroke-width="20"/>
<path d="M1228.18 367.45L1214.69 364.135C1193.61 358.953 1171.34 362.289 1152.7 373.419L1147.6 376.466C1117.89 394.212 1079.89 389.302 1055.66 364.585V364.585C1030.21 338.626 989.802 334.671 959.804 355.205L940.847 368.182C910.304 389.089 869.747 387.848 840.54 365.112V365.112C810.854 342.003 769.515 341.137 738.887 362.983L734.027 366.449C701.328 389.772 657.206 388.894 625.461 364.289V364.289C598.334 343.263 561.683 339.293 530.682 354.022L472.219 381.799" stroke="black" stroke-width="20"/>
<path d="M1223.36 393.844L1209.87 390.53C1188.79 385.348 1166.52 388.683 1147.88 399.814L1142.78 402.86C1113.07 420.607 1075.07 415.696 1050.84 390.98V390.98C1025.39 365.02 984.981 361.066 954.984 381.6L936.026 394.576C905.483 415.484 864.927 414.242 835.72 391.506V391.506C806.034 368.398 764.695 367.532 734.067 389.377L729.206 392.844C696.508 416.166 652.385 415.288 620.641 390.683V390.683C593.514 369.657 556.862 365.687 525.862 380.416L467.398 408.194" stroke="white" stroke-width="20"/>
<path d="M1221.89 449.442L1208.41 446.128C1187.33 440.945 1165.05 444.281 1146.42 455.411L1141.31 458.458C1111.6 476.204 1073.6 471.294 1049.37 446.578V446.578C1023.92 420.618 983.513 416.664 953.515 437.197L934.557 450.174C904.015 471.081 863.458 469.84 834.251 447.104V447.104C804.565 423.995 763.226 423.13 732.598 444.975L727.738 448.442C695.039 471.764 650.917 470.886 619.172 446.281V446.281C592.045 425.255 555.394 421.285 524.393 436.014L465.93 463.791" stroke="white" stroke-width="20"/>
<path d="M1223.09 421.188L1209.6 417.874C1188.52 412.692 1166.25 416.027 1147.61 427.158L1142.51 430.204C1112.8 447.95 1074.8 443.04 1050.57 418.324V418.324C1025.12 392.364 984.712 388.41 954.714 408.943L935.757 421.92C905.214 442.827 864.657 441.586 835.45 418.85V418.85C805.764 395.742 764.425 394.876 733.797 416.721L728.937 420.188C696.238 443.51 652.116 442.632 620.371 418.027V418.027C593.244 397.001 556.593 393.031 525.592 407.76L467.129 435.537" stroke="black" stroke-width="20"/>
<path d="M1227.08 476.844L1213.6 473.53C1192.52 468.348 1170.25 471.683 1151.61 482.814L1146.51 485.86C1116.79 503.607 1078.79 498.696 1054.56 473.98V473.98C1029.12 448.02 988.708 444.066 958.711 464.6L939.753 477.576C909.21 498.484 868.654 497.242 839.446 474.506V474.506C809.76 451.398 768.421 450.532 737.794 472.377L732.933 475.844C700.235 499.166 656.112 498.288 624.367 473.683V473.683C597.24 452.657 560.589 448.687 529.588 463.416L471.125 491.194" stroke="black" stroke-width="20"/>
<path d="M1229.54 505.13L1216.06 501.815C1194.98 496.633 1172.7 499.969 1154.07 511.099L1148.97 514.145C1119.25 531.892 1081.25 526.981 1057.02 502.265V502.265C1031.57 476.305 991.165 472.351 961.168 492.885L942.21 505.862C911.667 526.769 871.111 525.527 841.903 502.792V502.792C812.217 479.683 770.878 478.817 740.251 500.662L735.39 504.129C702.692 527.451 658.569 526.573 626.824 501.969V501.969C599.697 480.943 563.046 476.972 532.045 491.701L473.582 519.479" stroke="white" stroke-width="20"/>
<path d="M1228.08 560.735L1214.59 557.421C1193.51 552.238 1171.24 555.574 1152.6 566.704L1147.5 569.751C1117.79 587.497 1079.78 582.587 1055.56 557.871V557.871C1030.11 531.911 989.7 527.957 959.703 548.49L940.745 561.467C910.202 582.374 869.646 581.133 840.439 558.397V558.397C810.753 535.288 769.413 534.422 738.786 556.268L733.925 559.735C701.227 583.057 657.104 582.179 625.36 557.574V557.574C598.232 536.548 561.581 532.578 530.58 547.307L472.117 575.084" stroke="white" stroke-width="20"/>
<path d="M1229.27 532.477L1215.78 529.163C1194.7 523.981 1172.43 527.316 1153.79 538.447L1148.69 541.493C1118.98 559.239 1080.98 554.329 1056.75 529.613V529.613C1031.3 503.653 990.892 499.699 960.894 520.232L941.936 533.209C911.393 554.116 870.837 552.875 841.63 530.139V530.139C811.944 507.031 770.605 506.165 739.977 528.01L735.116 531.477C702.418 554.799 658.295 553.921 626.551 529.316V529.316C599.424 508.29 562.772 504.32 531.772 519.049L473.309 546.826" stroke="black" stroke-width="20"/>
<path d="M1233.27 588.141L1219.79 584.827C1198.71 579.645 1176.44 582.98 1157.8 594.111L1152.7 597.157C1122.99 614.903 1084.98 609.993 1060.75 585.277V585.277C1035.31 559.317 994.899 555.363 964.902 575.896L945.944 588.873C915.401 609.78 874.845 608.539 845.638 585.803V585.803C815.952 562.695 774.613 561.829 743.985 583.674L739.124 587.141C706.426 610.463 662.303 609.585 630.559 584.98V584.98C603.431 563.954 566.78 559.984 535.78 574.713L477.316 602.49" stroke="black" stroke-width="20"/>
<path d="M1230.26 616.368L1216.77 613.053C1195.69 607.871 1173.42 611.207 1154.78 622.337L1149.68 625.384C1119.97 643.13 1081.96 638.22 1057.73 613.503V613.503C1032.29 587.544 991.88 583.589 961.882 604.123L942.925 617.1C912.382 638.007 871.825 636.766 842.618 614.03V614.03C812.932 590.921 771.593 590.055 740.965 611.901L736.105 615.367C703.406 638.69 659.284 637.812 627.539 613.207V613.207C600.412 592.181 563.761 588.211 532.76 602.94L474.297 630.717" stroke="white" stroke-width="20"/>
<path d="M1228.79 671.973L1215.31 668.659C1194.23 663.477 1171.95 666.812 1153.32 677.943L1148.22 680.989C1118.5 698.735 1080.5 693.825 1056.27 669.109V669.109C1030.82 643.149 990.415 639.195 960.418 659.728L941.46 672.705C910.917 693.612 870.361 692.371 841.153 669.635V669.635C811.467 646.527 770.128 645.661 739.501 667.506L734.64 670.973C701.942 694.295 657.819 693.417 626.074 668.812V668.812C598.947 647.786 562.296 643.816 531.295 658.545L472.832 686.322" stroke="white" stroke-width="20"/>
<path d="M1229.99 643.719L1216.5 640.405C1195.42 635.223 1173.15 638.558 1154.51 649.689L1149.41 652.735C1119.7 670.482 1081.69 665.571 1057.47 640.855V640.855C1032.02 614.895 991.61 610.941 961.613 631.475L942.655 644.451C912.112 665.359 871.556 664.117 842.349 641.381V641.381C812.663 618.273 771.323 617.407 740.696 639.252L735.835 642.719C703.137 666.041 659.014 665.163 627.27 640.558V640.558C600.142 619.532 563.491 615.562 532.491 630.291L474.027 658.069" stroke="black" stroke-width="20"/>
<path d="M1233.99 699.376L1220.5 696.061C1199.42 690.879 1177.15 694.215 1158.51 705.345L1153.41 708.391C1123.7 726.138 1085.69 721.227 1061.47 696.511V696.511C1036.02 670.552 995.61 666.597 965.613 687.131L946.655 700.108C916.112 721.015 875.556 719.773 846.349 697.038V697.038C816.663 673.929 775.323 673.063 744.696 694.908L739.835 698.375C707.137 721.698 663.014 720.819 631.27 696.215V696.215C604.142 675.189 567.491 671.218 536.491 685.947L478.027 713.725" stroke="black" stroke-width="20"/>
</g>
</g>
<defs>
<clipPath id="clip0">
<rect width="1120" height="733"/>
</clipPath>
</defs>
</svg>
