<svg xmlns="http://www.w3.org/2000/svg" width="0" height="0" display="none">
  <symbol id="logo" viewBox="0 0 92 110">
    <title>Ptrsc Logo</title>
    <path d="M92,0H74.6v93.5h-5l-12,0c-2.4,0-4.6-0.4-6.6-1.3c-2.1-0.9-3.9-2-5.4-3.5s-2.8-3.2-3.7-5.3
			c-0.9-2-1.3-4.1-1.3-6.4c0-2.3,0.4-4.4,1.3-6.4c0.9-2,2.1-3.8,3.7-5.3c1.1-1.1,2.5-2.1,3.9-2.8l2.1-1.1c2.8-1.8,4.8-2.9,7-5.1
			c3.1-3,5.6-6.5,7.4-10.5c0.3-0.6,0.5-1.1,0.7-1.7c1.3-3.5,2-7.2,2-11.1c0-3-0.4-5.9-1.2-8.7c-0.8-2.8-2-5.4-3.5-7.9
			c-1.5-2.5-3.3-4.7-5.4-6.7c-2.1-2-4.4-3.7-6.9-5.2c-2.5-1.4-5.3-2.5-8.2-3.3C40.5,0.4,37.5,0,34.3,0H0v16.5L0,110h17.4V16.5h17
			c2.4,0,4.6,0.4,6.6,1.3c2.1,0.9,3.9,2,5.4,3.5c1.6,1.5,2.8,3.2,3.7,5.3c0.9,2,1.3,4.1,1.3,6.4s-0.4,4.4-1.3,6.4
			c-0.9,2-2.1,3.8-3.7,5.3c-1.3,1.2-2.8,2.3-4.4,3.1c0.8-0.4,1.5-0.7,2.4-1.1c-4.2,1.7-7.8,4.1-10.9,7.1c-3.1,3-5.6,6.5-7.4,10.5
			c-0.3,0.6-0.5,1.1-0.7,1.7c-1.3,3.5-2,7.2-2,11.1c0,3,0.4,5.9,1.2,8.7c0.8,2.8,2,5.4,3.5,7.9c1.5,2.5,3.3,4.7,5.4,6.7
			c2.1,2,4.4,3.7,6.9,5.2c2.5,1.4,5.3,2.5,8.2,3.3c2.9,0.8,5.9,1.2,9.1,1.2H92V93.5L92,0z"/>
  </symbol>

  <symbol id="facebook" viewBox="0 0 51 51">
    <title>Facebook icon</title>
    <path fill="currentColor" d="M27.3,36.5v-11h3.3l0.4-3.8h-3.7l0-1.9c0-1,0.1-1.5,1.6-1.5h2v-3.8h-3.3c-3.9,0-5.3,1.8-5.3,4.9v2.3H20v3.8h2.4v11H27.3z"/>
  </symbol>

  <symbol id="twitter" viewBox="0 0 51 51">
    <title>Twitter icon</title>
    <path fill="currentColor" d="M25.2,21.1l0,0.8l-0.8-0.1c-2.9-0.4-5.4-1.7-7.6-3.9l-1-1.1l-0.3,0.8c-0.6,1.8-0.2,3.7,1,5c0.6,0.7,0.5,0.8-0.6,0.4 c-0.4-0.1-0.7-0.2-0.7-0.2c-0.1,0.1,0.3,1.6,0.6,2.2c0.4,0.8,1.3,1.7,2.2,2.1l0.8,0.4l-0.9,0c-0.9,0-0.9,0-0.8,0.4
    c0.3,1.1,1.6,2.2,3,2.8l1,0.4l-0.9,0.5c-1.3,0.8-2.8,1.2-4.3,1.2c-0.7,0-1.3,0.1-1.3,0.1c0,0.2,1.9,1.1,3.1,1.5
    C21,35.5,25,35,28,33.2c2.1-1.3,4.3-4,5.3-6.5c0.5-1.4,1.1-3.8,1.1-5c0-0.8,0-0.9,0.9-1.8c0.5-0.5,1-1.1,1.1-1.3
    c0.2-0.3,0.1-0.3-0.7,0c-1.4,0.5-1.5,0.4-0.9-0.3c0.5-0.5,1.1-1.5,1.1-1.8c0-0.1-0.2,0-0.5,0.2c-0.3,0.2-0.9,0.4-1.4,0.6l-0.9,0.3
l-0.8-0.6c-0.4-0.3-1-0.6-1.4-0.7c-0.8-0.2-2.1-0.2-2.8,0.1C26.3,17,25,18.9,25.2,21.1L25.2,21.1z"/>
  </symbol>

  <symbol id="instagram" viewBox="0 0 51 51">
    <title>Instagram icon</title>
    <path fill="currentColor" d="M36.5,16c-0.2-1-1-1.8-2-2c0,0-0.1,0-0.1,0H16.7c-0.1,0-0.2,0-0.3,0.1c-1,0.2-1.7,1.1-1.8,2.1c0,0,0,0.1,0,0.1v18.5
    c0,0.1,0,0.2,0.1,0.4c0.2,1,1,1.8,2,1.9c0,0,0.1,0,0.1,0h17.6c0.1,0,0.2,0,0.3-0.1c0.9-0.2,1.6-1,1.8-1.9c0-0.1,0-0.2,0-0.3V16.3
    C36.5,16.2,36.5,16.1,36.5,16z M31.1,15.9c0.7,0,1.4,0,2.1,0c0.5,0,0.9,0.4,0.9,0.9c0,0.7,0,1.5,0,2.2c0,0.5-0.4,0.9-0.8,0.9
    c-0.4,0-0.7,0-1.1,0c-0.3,0-0.7,0-1,0c-0.4,0-0.7-0.2-0.9-0.6c0-0.1-0.1-0.2-0.1-0.3c0-0.7,0-1.4,0-2.2
    C30.3,16.3,30.7,15.9,31.1,15.9z M25.5,20.8c2.5,0,4.5,2.2,4.5,4.8c-0.1,2.5-2.1,4.6-4.6,4.6C23,30.1,21,28,21,25.4
    C21.1,22.9,23.1,20.8,25.5,20.8z M34.1,23.4c0,3.4,0,6.8,0,10.2c0,0.5-0.4,0.9-0.9,0.9c-5.2,0-10.3,0-15.5,0c-0.5,0-0.9-0.4-0.9-0.9
    c0-3.4,0-6.8,0-10.2v-0.1c0.7,0,1.4,0,2.1,0c-0.5,1.9-0.4,3.8,0.5,5.6c0.6,1.2,1.5,2.1,2.7,2.8c2.3,1.3,5,1.2,7.2-0.3
    c0.8-0.6,1.5-1.3,2-2.2c0.5-0.9,0.8-1.8,0.9-2.9c0.1-1,0-2-0.3-3L34.1,23.4L34.1,23.4z"/>
  </symbol>

  <symbol id="right-arrow" viewBox="0 0 64 64">
    <title>Right arrow icon</title>
    <path d="M59.927 31.985l.073.076-16.233 17.072-3.247-3.593L51.324 34H4v-4h47.394L40.52 18.407l3.247-3.494L60 31.946l-.073.039z" fill="currentColor"/>
  </symbol>

</svg>
