<svg xmlns="http://www.w3.org/2000/svg" width="0" height="0" display="none">
  <symbol id="logo" viewBox="0 0 92 110">
    <title>Ptrsc Logo</title>
    <path d="M92,0H74.6v93.5h-5l-12,0c-2.4,0-4.6-0.4-6.6-1.3c-2.1-0.9-3.9-2-5.4-3.5s-2.8-3.2-3.7-5.3
			c-0.9-2-1.3-4.1-1.3-6.4c0-2.3,0.4-4.4,1.3-6.4c0.9-2,2.1-3.8,3.7-5.3c1.1-1.1,2.5-2.1,3.9-2.8l2.1-1.1c2.8-1.8,4.8-2.9,7-5.1
			c3.1-3,5.6-6.5,7.4-10.5c0.3-0.6,0.5-1.1,0.7-1.7c1.3-3.5,2-7.2,2-11.1c0-3-0.4-5.9-1.2-8.7c-0.8-2.8-2-5.4-3.5-7.9
			c-1.5-2.5-3.3-4.7-5.4-6.7c-2.1-2-4.4-3.7-6.9-5.2c-2.5-1.4-5.3-2.5-8.2-3.3C40.5,0.4,37.5,0,34.3,0H0v16.5L0,110h17.4V16.5h17
			c2.4,0,4.6,0.4,6.6,1.3c2.1,0.9,3.9,2,5.4,3.5c1.6,1.5,2.8,3.2,3.7,5.3c0.9,2,1.3,4.1,1.3,6.4s-0.4,4.4-1.3,6.4
			c-0.9,2-2.1,3.8-3.7,5.3c-1.3,1.2-2.8,2.3-4.4,3.1c0.8-0.4,1.5-0.7,2.4-1.1c-4.2,1.7-7.8,4.1-10.9,7.1c-3.1,3-5.6,6.5-7.4,10.5
			c-0.3,0.6-0.5,1.1-0.7,1.7c-1.3,3.5-2,7.2-2,11.1c0,3,0.4,5.9,1.2,8.7c0.8,2.8,2,5.4,3.5,7.9c1.5,2.5,3.3,4.7,5.4,6.7
			c2.1,2,4.4,3.7,6.9,5.2c2.5,1.4,5.3,2.5,8.2,3.3c2.9,0.8,5.9,1.2,9.1,1.2H92V93.5L92,0z" fill="currentColor"/>
  </symbol>

  <symbol id="twitter" viewBox="0 0 16 16">
    <title>Twitter icon</title>
    <path d="M5.2,14.5c-1.5,0-3.1-0.4-4.4-1.2l-1.5-0.9L1,12.3c0.9,0,1.7-0.2,2.5-0.5C1.8,10,0.8,7.7,0.8,5.1c0-1,0.1-1.9,0.4-2.9l0.3-1
	l0.6,0.9c1.1,1.8,3,2.9,5,3c0,0,0,0,0,0c0-2,1.6-3.6,3.5-3.6c1.1,0,2.2,0.6,2.8,1.6h2.7l-2.1,2.2c0,4.1-2.7,7.7-6.4,8.9
	C6.9,14.4,6,14.5,5.2,14.5z M2.8,13.1c1.5,0.5,3.1,0.5,4.7,0.1c3.4-1,5.7-4.3,5.7-8l0-0.1l0,0l0-0.2l0.7-0.8h-0.9l-0.1-0.3
	c-0.5-0.8-1.2-1.3-2.1-1.3c-1.4,0-2.5,1.2-2.5,2.6c0,0.1,0,0.3,0,0.4l0.1,0.6l-0.6,0c-0.1,0-0.2,0-0.2,0c-2.1,0-4.2-1-5.6-2.6
	C1.9,4.1,1.8,4.6,1.8,5.1c0,2.5,1.1,4.9,2.9,6.4L5.3,12l-0.7,0.3C4,12.7,3.4,12.9,2.8,13.1z" fill="currentColor"/>
  </symbol>

  <symbol id="instagram" viewBox="0 0 16 16">
    <title>Instagram icon</title>
    <path d="M11.5,16h-7C2,16,0,14,0,11.5v-7C0,2,2,0,4.5,0h7C14,0,16,2,16,4.5v7C16,14,14,16,11.5,16z M4.5,1C2.6,1,1,2.6,1,4.5v7
	C1,13.4,2.6,15,4.5,15h7c1.9,0,3.5-1.6,3.5-3.5v-7C15,2.6,13.4,1,11.5,1H4.5z M8,12c-2.2,0-4-1.8-4-4c0-2.2,1.8-4,4-4
	c2.2,0,4,1.8,4,4C12,10.2,10.2,12,8,12z M8,5C6.3,5,5,6.3,5,8s1.3,3,3,3s3-1.3,3-3S9.7,5,8,5z M12.5,2.5c-0.6,0-1,0.4-1,1s0.4,1,1,1
	s1-0.4,1-1S13.1,2.5,12.5,2.5z" fill="curretnColor"/>
  </symbol>

  <symbol id="dribbble" viewBox="0 0 16 16">
    <title>Dribbble icon</title>
    <path d="M8,0C3.6,0,0,3.6,0,8s3.6,8,8,8s8-3.6,8-8S12.4,0,8,0z M15,8c-1.9-0.4-3.6-0.4-5-0.2c-0.2-0.5-0.5-1-0.7-1.5
	c1.6-0.6,3-1.5,4-2.9C14.4,4.7,15,6.3,15,8z M12.6,2.7C11.7,4,10.3,4.9,8.8,5.4c-1-1.9-2.1-3.4-2.7-4.2C6.7,1.1,7.3,1,8,1
	C9.8,1,11.4,1.7,12.6,2.7z M5.1,1.6c0.5,0.7,1.6,2.2,2.7,4.1C5.1,6.6,2.3,6.7,1.1,6.6C1.6,4.4,3.1,2.6,5.1,1.6z M1,8
	c0-0.1,0-0.2,0-0.4c0.2,0,0.4,0,0.6,0c1.5,0,4.1-0.1,6.7-0.9C8.6,7.1,8.8,7.6,9,8.1c-3.5,1-5.4,3.5-6.1,4.7C1.7,11.5,1,9.8,1,8z
	 M3.6,13.4C4.1,12.5,5.8,9.9,9.4,9c0.7,1.7,1.2,3.6,1.3,5.5C9.9,14.8,9,15,8,15C6.3,15,4.8,14.4,3.6,13.4z M11.7,14
	c-0.2-1.8-0.6-3.5-1.3-5.2c1.3-0.2,2.8-0.2,4.5,0.2C14.6,11.1,13.4,12.9,11.7,14z" fill="currentColor"/>
  </symbol>

</svg>
