<svg xmlns="http://www.w3.org/2000/svg" width="0" height="0" display="none">
  <symbol id="logo" viewBox="0 0 196 63">
		<title>Ptrsc Logo</title>
		<path d="M38.422.441c2.905 0 5.404.593 7.495 1.778 2.121 1.156 3.748 2.847 4.881 5.073.72 1.394 1.21 2.963 1.473 4.707.271-1.726.773-3.281 1.504-4.664 1.162-2.226 2.818-3.93 4.968-5.116 2.15-1.185 4.692-1.778 7.626-1.778 3.283 0 5.927.578 7.931 1.735 2.005 1.156 3.588 3.02 4.75 5.593L72.123 10.5c-.35-1.416-1.003-2.471-1.962-3.165-.958-.694-2.15-1.04-3.573-1.04-2.208 0-3.908.751-5.099 2.254-1.162 1.503-1.743 3.714-1.743 6.634 0 6.012 2.354 9.018 7.06 9.018 1.772 0 3.196-.405 4.27-1.214 1.105-.81 1.657-1.98 1.657-3.512v-.434h-7.147v-5.029h13.51V29.49h-5.23l-.218-3.381c-1.656 2.543-4.402 3.815-8.237 3.815-2.614 0-4.938-.564-6.972-1.691-2.005-1.156-3.574-2.833-4.707-5.03-.718-1.41-1.209-2.995-1.471-4.755-.266 1.72-.753 3.277-1.462 4.669-1.133 2.197-2.76 3.888-4.88 5.073-2.092 1.156-4.59 1.734-7.496 1.734-2.905 0-5.418-.578-7.54-1.734-2.12-1.185-3.747-2.876-4.88-5.073a14.17 14.17 0 01-.84-2.032c.02.224.03.454.03.688 0 2.486-.886 4.393-2.659 5.723-1.772 1.33-4.372 1.994-7.8 1.994H.091V.875h13.988c6.915.029 10.372 2.601 10.372 7.717 0 1.677-.494 3.093-1.482 4.25-.987 1.156-2.44 1.878-4.358 2.167v.044c2.15.289 3.777 1.04 4.881 2.254a5.963 5.963 0 011.14 1.681 20.881 20.881 0 01-.33-3.805c0-3.064.567-5.695 1.7-7.891 1.133-2.226 2.76-3.917 4.88-5.073 2.122-1.185 4.635-1.778 7.54-1.778zm0 5.854c-2.092 0-3.69.751-4.794 2.254-1.104 1.503-1.656 3.714-1.656 6.634 0 2.919.552 5.13 1.656 6.633 1.104 1.503 2.702 2.255 4.794 2.255 2.092 0 3.675-.752 4.75-2.255 1.104-1.503 1.656-3.714 1.656-6.633 0-2.92-.552-5.13-1.656-6.634-1.075-1.503-2.658-2.254-4.75-2.254zM12.728 12.58c2.702 0 4.053-1.04 4.053-3.121 0-2.082-1.35-3.122-4.053-3.122H7.325v6.243h5.403zm.741 11.663c1.337 0 2.339-.274 3.007-.824.697-.549 1.046-1.344 1.046-2.384 0-1.012-.349-1.778-1.046-2.298-.668-.55-1.67-.824-3.007-.824H7.325v6.33h6.144zm97.6-16.916l-7.831 22.162h7.539l2.005-6.46h9.936l1.961 6.46h13.324V15.053l-.174-5.377h.044l2.179 4.336 8.933 15.478h8.324V.875h-6.624v14.438l.174 5.376h-.044l-2.178-4.336L139.703.875h-8.324v25.736L122.326.875h-8.978l-2.279 6.452zm2.774 26.064H97.776v27.71l-6.73-10.324c1.83-.664 3.224-1.69 4.183-3.078.959-1.387 1.438-3.122 1.438-5.203 0-2.948-.944-5.203-2.832-6.763-1.86-1.561-4.533-2.342-8.019-2.342H24.842v28.616h22.966V56.24h-15.47v-5.853H44.19v-5.42H32.337v-5.81h22.96v22.85h7.496v-22.85h9.296v22.85h7.365v-10.45h4.488l6.145 10.45h30.655V59.27a13.89 13.89 0 003.48 2c2.034.781 4.678 1.171 7.932 1.171 2.324 0 4.401-.346 6.231-1.04 1.86-.694 3.312-1.706 4.358-3.035 1.012-1.286 1.534-2.801 1.567-4.546.218.633.473 1.238.767 1.814 1.133 2.197 2.76 3.888 4.881 5.073 2.121 1.156 4.634 1.734 7.539 1.734 3.167 0 5.854-.708 8.062-2.124 2.014-1.319 3.448-3.239 4.302-5.76.51 1.992 1.424 3.608 2.743 4.85 2.179 2.023 5.389 3.034 9.631 3.034 4.271 0 7.481-1.011 9.631-3.035 2.15-2.023 3.225-5.043 3.225-9.061V33.392h-7.452v17.083c0 4.075-1.802 6.113-5.404 6.113-1.801 0-3.138-.506-4.009-1.517-.872-1.012-1.308-2.544-1.308-4.596V33.392h-7.539v6.32c-.781-2.067-2.098-3.653-3.951-4.759-2.179-1.33-4.837-1.994-7.975-1.994-2.876 0-5.374.592-7.495 1.777-2.121 1.157-3.748 2.848-4.881 5.073-1.133 2.226-1.7 4.856-1.7 7.891 0 .759.035 1.492.105 2.199a6.645 6.645 0 00-1.741-2.112c-1.685-1.387-4.518-2.443-8.498-3.165-2.063-.376-3.53-.78-4.401-1.214-.843-.463-1.264-1.055-1.264-1.778 0-.867.407-1.56 1.22-2.08.813-.521 1.976-.781 3.486-.781 1.802 0 3.341.346 4.62 1.04 1.307.665 2.44 1.72 3.399 3.165l4.227-4.856c-1.656-1.82-3.457-3.136-5.404-3.945-1.917-.81-4.241-1.214-6.972-1.214-2.557 0-4.78.405-6.668 1.214-1.859.78-3.283 1.879-4.271 3.295-.958 1.416-1.438 3.02-1.438 4.813 0 1.792.436 3.266 1.308 4.422.9 1.156 2.149 2.081 3.747 2.775 1.627.665 3.676 1.243 6.145 1.734 2.005.376 3.428.78 4.271 1.214.871.405 1.307.94 1.307 1.604 0 .838-.407 1.489-1.22 1.951-.785.434-1.976.65-3.574.65-2.004 0-3.718-.317-5.142-.953-1.423-.636-2.702-1.734-3.835-3.295l-2.844 3.858H105.272v-5.853H117.125v-5.42h-11.853v-5.81h14.904v-5.766h-6.333zM84.553 46.27h-5.1v-7.24h5.1c1.597 0 2.76.289 3.486.867.726.578 1.09 1.489 1.09 2.731 0 1.272-.364 2.197-1.09 2.775-.727.578-1.889.867-3.487.867zM102.96 4.604C100.578 2.118 97.135.875 92.632.875H80.43V29.49h12.202c4.503 0 7.946-1.228 10.328-3.685 2.412-2.486 3.617-6.026 3.617-10.622s-1.205-8.122-3.617-10.58zm-5.752 17.082c-1.133 1.445-2.905 2.168-5.317 2.168h-3.965V6.511h3.965c2.412 0 4.184.723 5.317 2.168 1.133 1.445 1.7 3.613 1.7 6.504 0 2.89-.567 5.058-1.7 6.503zM21.53 35.864c-1.917-1.648-4.663-2.472-8.236-2.472H.09v28.616h7.495v-9.929h5.709c3.573 0 6.319-.795 8.236-2.385 1.918-1.618 2.876-3.887 2.876-6.806 0-3.064-.958-5.406-2.876-7.024zm-5.84 9.842c-.755.607-1.946.91-3.573.91H7.586V39.03h4.532c1.627 0 2.818.318 3.574.954.784.607 1.176 1.546 1.176 2.818 0 1.3-.392 2.269-1.176 2.905zm103.366-34.599l2.092 6.85h-6.798l2.179-6.893 1.176-4.466h.087l1.264 4.51zm44.105 32.388l6.217-2.5v9.35c0 1.207.097 2.324.291 3.35l-6.377-1.79c-.349 1.62-.988 2.804-1.918 3.556-.929.752-2.193 1.127-3.791 1.127-2.121 0-3.748-.751-4.881-2.254-1.104-1.532-1.656-3.743-1.656-6.634 0-2.89.581-5.087 1.743-6.59 1.163-1.532 2.804-2.298 4.925-2.298 1.54 0 2.731.347 3.573 1.04.843.694 1.467 1.908 1.874 3.643z" fill="#fff"/>
  </symbol>

  <symbol id="twitter" viewBox="0 0 16 16">
	<title>Twitter icon</title>
	<path d="M5.2,14.5c-1.5,0-3.1-0.4-4.4-1.2l-1.5-0.9L1,12.3c0.9,0,1.7-0.2,2.5-0.5C1.8,10,0.8,7.7,0.8,5.1c0-1,0.1-1.9,0.4-2.9l0.3-1
	l0.6,0.9c1.1,1.8,3,2.9,5,3c0,0,0,0,0,0c0-2,1.6-3.6,3.5-3.6c1.1,0,2.2,0.6,2.8,1.6h2.7l-2.1,2.2c0,4.1-2.7,7.7-6.4,8.9
	C6.9,14.4,6,14.5,5.2,14.5z M2.8,13.1c1.5,0.5,3.1,0.5,4.7,0.1c3.4-1,5.7-4.3,5.7-8l0-0.1l0,0l0-0.2l0.7-0.8h-0.9l-0.1-0.3
	c-0.5-0.8-1.2-1.3-2.1-1.3c-1.4,0-2.5,1.2-2.5,2.6c0,0.1,0,0.3,0,0.4l0.1,0.6l-0.6,0c-0.1,0-0.2,0-0.2,0c-2.1,0-4.2-1-5.6-2.6
	C1.9,4.1,1.8,4.6,1.8,5.1c0,2.5,1.1,4.9,2.9,6.4L5.3,12l-0.7,0.3C4,12.7,3.4,12.9,2.8,13.1z" fill="currentColor"/>
  </symbol>

  <symbol id="instagram" viewBox="0 0 16 16">
	<title>Instagram icon</title>
	<path d="M11.5,16h-7C2,16,0,14,0,11.5v-7C0,2,2,0,4.5,0h7C14,0,16,2,16,4.5v7C16,14,14,16,11.5,16z M4.5,1C2.6,1,1,2.6,1,4.5v7
	C1,13.4,2.6,15,4.5,15h7c1.9,0,3.5-1.6,3.5-3.5v-7C15,2.6,13.4,1,11.5,1H4.5z M8,12c-2.2,0-4-1.8-4-4c0-2.2,1.8-4,4-4
	c2.2,0,4,1.8,4,4C12,10.2,10.2,12,8,12z M8,5C6.3,5,5,6.3,5,8s1.3,3,3,3s3-1.3,3-3S9.7,5,8,5z M12.5,2.5c-0.6,0-1,0.4-1,1s0.4,1,1,1
	s1-0.4,1-1S13.1,2.5,12.5,2.5z" fill="curretnColor"/>
  </symbol>

  <symbol id="dribbble" viewBox="0 0 16 16">
	<title>Dribbble icon</title>
	<path d="M8,0C3.6,0,0,3.6,0,8s3.6,8,8,8s8-3.6,8-8S12.4,0,8,0z M15,8c-1.9-0.4-3.6-0.4-5-0.2c-0.2-0.5-0.5-1-0.7-1.5
	c1.6-0.6,3-1.5,4-2.9C14.4,4.7,15,6.3,15,8z M12.6,2.7C11.7,4,10.3,4.9,8.8,5.4c-1-1.9-2.1-3.4-2.7-4.2C6.7,1.1,7.3,1,8,1
	C9.8,1,11.4,1.7,12.6,2.7z M5.1,1.6c0.5,0.7,1.6,2.2,2.7,4.1C5.1,6.6,2.3,6.7,1.1,6.6C1.6,4.4,3.1,2.6,5.1,1.6z M1,8
	c0-0.1,0-0.2,0-0.4c0.2,0,0.4,0,0.6,0c1.5,0,4.1-0.1,6.7-0.9C8.6,7.1,8.8,7.6,9,8.1c-3.5,1-5.4,3.5-6.1,4.7C1.7,11.5,1,9.8,1,8z
	 M3.6,13.4C4.1,12.5,5.8,9.9,9.4,9c0.7,1.7,1.2,3.6,1.3,5.5C9.9,14.8,9,15,8,15C6.3,15,4.8,14.4,3.6,13.4z M11.7,14
	c-0.2-1.8-0.6-3.5-1.3-5.2c1.3-0.2,2.8-0.2,4.5,0.2C14.6,11.1,13.4,12.9,11.7,14z" fill="currentColor"/>
  </symbol>

  <symbol id="scrollup" viewBox="0 0 16 16">
	<title>Scroll up icon</title>
	<path d="M0 9L8 1L16 9" stroke-width="2" vector-effect="non-scaling-stroke"/>
  </symbol>
</svg>
