<svg xmlns="http://www.w3.org/2000/svg" width="0" height="0" display="none">
  <symbol id="logo" viewBox="0 0 172 56">
		<title>Ptrsc Logo</title>
		<path d="m97.358 7.4387c1.2801 4.3852 2.1074 8.9617 2.4281 13.676h-0.9345l-1.7477 5.6264h-6.5725l6.8266-19.303z" fill="#fff"/>
		<path d="m99.226 35.162c0.2469-1.6546 0.431-3.3295 0.5498-5.0223h-14.007v24.134l-5.8679-8.9916c1.5956-0.579 2.8113-1.4727 3.6472-2.681 0.8358-1.2084 1.2537-2.7188 1.2537-4.5314 0-2.5678-0.8232-4.5314-2.4695-5.8908-1.6209-1.3594-3.9511-2.0391-6.9904-2.0391h-53.157v24.922h20.022v-5.0222h-13.487v-5.0978h10.334v-4.7202h-10.334v-5.06h20.016v19.9h6.5345v-19.9h8.1044v19.9h6.4206v-9.1005h3.9131l5.3569 9.1005h13.749c0.8411-1.6352 1.6144-3.3105 2.3164-5.0222h-2.8275v-5.0978h4.6705c0.4872-1.5493 0.9175-3.1235 1.2885-4.7202h-5.959v-5.06h6.9226zm-24.986 6.1928h-4.445v-6.3061h4.445c1.393 0 2.4061 0.2517 3.0393 0.7552s0.9498 1.2965 0.9498 2.379c0 1.1077-0.3166 1.9132-0.9498 2.4167s-1.6463 0.7552-3.0393 0.7552z" clip-rule="evenodd" fill="#fff" fill-rule="evenodd"/>
		<path d="m40.559 2.9896c-1.8236-1.0321-4.0018-1.5482-6.5346-1.5482-2.5327 0-4.7236 0.51607-6.5725 1.5482-1.8489 1.007-3.2673 2.4797-4.2551 4.4181-0.9877 1.9132-1.4816 4.2041-1.4816 6.8726 0 1.1756 0.0958 2.2804 0.2876 3.3144-0.2416-0.5361-0.5729-1.0241-0.994-1.4641-0.9625-1.0573-2.3808-1.7119-4.2551-1.9636v-0.0378c1.6716-0.2517 2.938-0.8811 3.7992-1.888 0.8611-1.007 1.2917-2.2406 1.2917-3.7007 0-4.4558-3.014-6.6964-9.042-6.7215h-12.195v24.922h12.765c2.9886 0 5.2555-0.579 6.8004-1.737 1.545-1.158 2.3175-2.8195 2.3175-4.9845 0-0.2041-0.0084-0.4036-0.0253-0.5987 0.2028 0.6202 0.4467 1.2099 0.7317 1.7693 0.9878 1.9132 2.4062 3.3859 4.2551 4.4181 1.8489 1.0069 4.0398 1.5104 6.5725 1.5104 2.5328 0 4.711-0.5035 6.5346-1.5104 1.8489-1.0322 3.2673-2.5049 4.2551-4.4181 0.6178-1.2126 1.0425-2.5679 1.2739-4.0661 0.2292 1.5323 0.6569 2.9128 1.2831 4.1416 0.9877 1.9133 2.3554 3.3734 4.1031 4.3803 1.7729 0.9818 3.7991 1.4727 6.0786 1.4727 3.3433 0 5.7367-1.1076 7.1804-3.323l0.19 2.9454h4.559v-13.481h-11.777v4.3803h6.2306v0.3776c0 1.3343-0.4812 2.3538-1.4437 3.0587-0.9371 0.7049-2.1782 1.0573-3.7232 1.0573-4.1031 0-6.1546-2.6181-6.1546-7.8543 0-2.5426 0.5066-4.4685 1.5197-5.7775 1.0384-1.3091 2.5201-1.9636 4.445-1.9636 1.241 0 2.2795 0.30209 3.1153 0.90627s1.4057 1.523 1.7096 2.7565l6.0407-2.3789c-1.0131-2.2405-2.3935-3.8642-4.1411-4.8712s-4.0524-1.5104-6.9145-1.5104c-2.5581 0-4.7743 0.51607-6.6485 1.5482-1.8743 1.0322-3.3179 2.5174-4.331 4.4558-0.6378 1.2043-1.0748 2.5582-1.3111 4.0618-0.229-1.5187-0.657-2.8852-1.2839-4.0996-0.9878-1.9384-2.4062-3.4111-4.2551-4.4181zm-10.714 5.5132c0.9624-1.3091 2.3554-1.9636 4.179-1.9636s3.204 0.65453 4.1411 1.9636c0.9625 1.3091 1.4437 3.2349 1.4437 5.7775s-0.4812 4.4684-1.4437 5.7774c-0.9371 1.3091-2.3175 1.9636-4.1411 1.9636s-3.2166-0.6545-4.179-1.9636c-0.9625-1.309-1.4437-3.2348-1.4437-5.7774s0.4812-4.4685 1.4437-5.7775zm-14.687 0.79299c0 1.8125-1.1778 2.7188-3.5333 2.7188h-4.7109v-5.4376h4.7109c2.3555 0 3.5333 0.90627 3.5333 2.7188zm-0.266 12.159c-0.5825 0.4783-1.4563 0.7175-2.6214 0.7175h-5.3568v-5.5132h5.3568c1.1651 0 2.0389 0.2392 2.6214 0.7175 0.6079 0.4531 0.9118 1.1202 0.9118 2.0013 0 0.9063-0.3039 1.5986-0.9118 2.0769z" clip-rule="evenodd" fill="#fff" fill-rule="evenodd"/>
		<path d="m90.288 5.0665c-2.0769-2.165-5.0782-3.2475-9.004-3.2475h-10.638v24.922h10.638c3.9258 0 6.9271-1.0699 9.004-3.2097 2.1022-2.165 3.1533-5.2488 3.1533-9.2515s-1.0511-7.074-3.1533-9.2138zm-5.0149 14.878c-0.9878 1.2587-2.5328 1.888-4.635 1.888h-3.4572v-15.105h3.4572c2.1022 0 3.6472 0.62936 4.635 1.8881s1.4817 3.1467 1.4817 5.6642c0 2.5174-0.4939 4.4055-1.4817 5.6642z" clip-rule="evenodd" fill="#fff" fill-rule="evenodd"/>
		<path d="m12.119 30.14c3.1153 0 5.5088 0.7175 7.1804 2.1524 1.6717 1.4098 2.5075 3.4489 2.5075 6.1174 0 2.5426-0.8358 4.5187-2.5075 5.9285-1.6716 1.3846-4.0651 2.0769-7.1804 2.0769h-4.9769v8.6473h-6.5346v-24.922h11.511zm-1.0257 11.517c1.4183 0 2.4567-0.2643 3.1153-0.793 0.6838-0.5538 1.0257-1.3971 1.0257-2.53 0-1.1076-0.3419-1.9258-1.0257-2.4545-0.6586-0.5538-1.697-0.8307-3.1153-0.8307h-3.9512v6.6082h3.9512z" clip-rule="evenodd" fill="#fff" fill-rule="evenodd"/>
		<path d="m97.358 7.4387c1.2801 4.3852 2.1074 8.9617 2.4281 13.676h-0.9345l-1.7477 5.6264h-6.5725l6.8266-19.303z" stroke="#fff"/>
		<path d="m99.226 35.162c0.2469-1.6546 0.431-3.3295 0.5498-5.0223h-14.007v24.134l-5.8679-8.9916c1.5956-0.579 2.8113-1.4727 3.6472-2.681 0.8358-1.2084 1.2537-2.7188 1.2537-4.5314 0-2.5678-0.8232-4.5314-2.4695-5.8908-1.6209-1.3594-3.9511-2.0391-6.9904-2.0391h-53.157v24.922h20.022v-5.0222h-13.487v-5.0978h10.334v-4.7202h-10.334v-5.06h20.016v19.9h6.5345v-19.9h8.1044v19.9h6.4206v-9.1005h3.9131l5.3569 9.1005h13.749c0.8411-1.6352 1.6144-3.3105 2.3164-5.0222h-2.8275v-5.0978h4.6705c0.4872-1.5493 0.9175-3.1235 1.2885-4.7202h-5.959v-5.06h6.9226zm-24.986 6.1928h-4.445v-6.3061h4.445c1.393 0 2.4061 0.2517 3.0393 0.7552s0.9498 1.2965 0.9498 2.379c0 1.1077-0.3166 1.9132-0.9498 2.4167s-1.6463 0.7552-3.0393 0.7552z" clip-rule="evenodd" fill-rule="evenodd" stroke="#fff"/>
		<path d="m40.559 2.9896c-1.8236-1.0321-4.0018-1.5482-6.5346-1.5482-2.5327 0-4.7236 0.51607-6.5725 1.5482-1.8489 1.007-3.2673 2.4797-4.2551 4.4181-0.9877 1.9132-1.4816 4.2041-1.4816 6.8726 0 1.1756 0.0958 2.2804 0.2876 3.3144-0.2416-0.5361-0.5729-1.0241-0.994-1.4641-0.9625-1.0573-2.3808-1.7119-4.2551-1.9636v-0.0378c1.6716-0.2517 2.938-0.8811 3.7992-1.888 0.8611-1.007 1.2917-2.2406 1.2917-3.7007 0-4.4558-3.014-6.6964-9.042-6.7215h-12.195v24.922h12.765c2.9886 0 5.2555-0.579 6.8004-1.737 1.545-1.158 2.3175-2.8195 2.3175-4.9845 0-0.2041-0.0084-0.4036-0.0253-0.5987 0.2028 0.6202 0.4467 1.2099 0.7317 1.7693 0.9878 1.9132 2.4062 3.3859 4.2551 4.4181 1.8489 1.0069 4.0398 1.5104 6.5725 1.5104 2.5328 0 4.711-0.5035 6.5346-1.5104 1.8489-1.0322 3.2673-2.5049 4.2551-4.4181 0.6178-1.2126 1.0425-2.5679 1.2739-4.0661 0.2292 1.5323 0.6569 2.9128 1.2831 4.1416 0.9877 1.9133 2.3554 3.3734 4.1031 4.3803 1.7729 0.9818 3.7991 1.4727 6.0786 1.4727 3.3433 0 5.7367-1.1076 7.1804-3.323l0.19 2.9454h4.559v-13.481h-11.777v4.3803h6.2306v0.3776c0 1.3343-0.4812 2.3538-1.4437 3.0587-0.9371 0.7049-2.1782 1.0573-3.7232 1.0573-4.1031 0-6.1546-2.6181-6.1546-7.8543 0-2.5426 0.5066-4.4685 1.5197-5.7775 1.0384-1.3091 2.5201-1.9636 4.445-1.9636 1.241 0 2.2795 0.30209 3.1153 0.90627s1.4057 1.523 1.7096 2.7565l6.0407-2.3789c-1.0131-2.2405-2.3935-3.8642-4.1411-4.8712s-4.0524-1.5104-6.9145-1.5104c-2.5581 0-4.7743 0.51607-6.6485 1.5482-1.8743 1.0322-3.3179 2.5174-4.331 4.4558-0.6378 1.2043-1.0748 2.5582-1.3111 4.0618-0.229-1.5187-0.657-2.8852-1.2839-4.0996-0.9878-1.9384-2.4062-3.4111-4.2551-4.4181zm-10.714 5.5132c0.9624-1.3091 2.3554-1.9636 4.179-1.9636s3.204 0.65453 4.1411 1.9636c0.9625 1.3091 1.4437 3.2349 1.4437 5.7775s-0.4812 4.4684-1.4437 5.7774c-0.9371 1.3091-2.3175 1.9636-4.1411 1.9636s-3.2166-0.6545-4.179-1.9636c-0.9625-1.309-1.4437-3.2348-1.4437-5.7774s0.4812-4.4685 1.4437-5.7775zm-14.687 0.79299c0 1.8125-1.1778 2.7188-3.5333 2.7188h-4.7109v-5.4376h4.7109c2.3555 0 3.5333 0.90627 3.5333 2.7188zm-0.266 12.159c-0.5825 0.4783-1.4563 0.7175-2.6214 0.7175h-5.3568v-5.5132h5.3568c1.1651 0 2.0389 0.2392 2.6214 0.7175 0.6079 0.4531 0.9118 1.1202 0.9118 2.0013 0 0.9063-0.3039 1.5986-0.9118 2.0769z" clip-rule="evenodd" fill-rule="evenodd" stroke="#fff"/>
		<path d="m90.288 5.0665c-2.0769-2.165-5.0782-3.2475-9.004-3.2475h-10.638v24.922h10.638c3.9258 0 6.9271-1.0699 9.004-3.2097 2.1022-2.165 3.1533-5.2488 3.1533-9.2515s-1.0511-7.074-3.1533-9.2138zm-5.0149 14.878c-0.9878 1.2587-2.5328 1.888-4.635 1.888h-3.4572v-15.105h3.4572c2.1022 0 3.6472 0.62936 4.635 1.8881s1.4817 3.1467 1.4817 5.6642c0 2.5174-0.4939 4.4055-1.4817 5.6642z" clip-rule="evenodd" fill-rule="evenodd" stroke="#fff"/>
		<path d="m12.119 30.14c3.1153 0 5.5088 0.7175 7.1804 2.1524 1.6717 1.4098 2.5075 3.4489 2.5075 6.1174 0 2.5426-0.8358 4.5187-2.5075 5.9285-1.6716 1.3846-4.0651 2.0769-7.1804 2.0769h-4.9769v8.6473h-6.5346v-24.922h11.511zm-1.0257 11.517c1.4183 0 2.4567-0.2643 3.1153-0.793 0.6838-0.5538 1.0257-1.3971 1.0257-2.53 0-1.1076-0.3419-1.9258-1.0257-2.4545-0.6586-0.5538-1.697-0.8307-3.1153-0.8307h-3.9512v6.6082h3.9512z" clip-rule="evenodd" fill-rule="evenodd" stroke="#fff"/>
		<path d="m99.785 21.116h7.7277l1.709 5.6264h11.617v-12.574l-0.152-4.6824h0.038l1.899 3.7761 7.789 13.481h7.256v-24.922h-5.775v12.574l0.152 4.6824h-0.038l-1.899-3.7761-7.789-13.481h-7.256v22.415l-7.893-22.415h-7.8264l-1.9874 5.6197c1.2801 4.3852 2.1074 8.9617 2.4281 13.676zm6.3597-4.4181-1.823-5.9663-1.102-3.9272h-0.076l-1.026 3.8894-1.9 6.0041h5.927z" clip-rule="evenodd" fill-rule="evenodd" stroke="#fff"/>
		<path d="m99.226 35.164c0.2469-1.6546 0.431-3.3295 0.5498-5.0223h5.5212v5.0223h-6.071z" stroke="#fff"/>
		<path d="m98.262 40.224c-0.371 1.5967-0.8013 3.1709-1.2885 4.7202h5.6631v-4.7202h-4.3746z" stroke="#fff"/>
		<path d="m95.131 50.042c-0.702 1.7118-1.4754 3.3871-2.3164 5.0223h12.976v-2.3848c0.918 0.7227 1.93 1.3036 3.034 1.7429 1.773 0.6797 4.078 1.0195 6.915 1.0195 2.026 0 3.837-0.3021 5.433-0.9063 1.621-0.6041 2.887-1.4852 3.799-2.6433 0.882-1.1197 1.337-2.4395 1.366-3.9594 0.19 0.5513 0.412 1.0782 0.668 1.5805 0.988 1.9132 2.407 3.3859 4.256 4.4181 1.848 1.0069 4.039 1.5104 6.572 1.5104 2.761 0 5.104-0.6167 7.029-1.8503 1.756-1.1483 3.006-2.8205 3.75-5.0165 0.445 1.7347 1.242 3.1425 2.391 4.2235 1.9 1.7622 4.699 2.6433 8.397 2.6433 3.723 0 6.521-0.8811 8.396-2.6433 1.874-1.7622 2.811-4.3929 2.811-7.8921v-14.765h-6.497v14.878c0 3.5496-1.57 5.3243-4.71 5.3243-1.571 0-2.736-0.4405-3.496-1.3216s-1.139-2.2153-1.139-4.0027v-14.878h-6.573v5.5043c-0.681-1.8001-1.829-3.1818-3.444-4.1449-1.9-1.158-4.218-1.737-6.953-1.737-2.507 0-4.686 0.5161-6.534 1.5482-1.849 1.007-3.268 2.4797-4.256 4.4181-0.987 1.9384-1.481 4.2293-1.481 6.8726 0 0.6607 0.03 1.299 0.091 1.9149-0.367-0.7046-0.873-1.3178-1.518-1.8394-1.469-1.2084-3.938-2.1272-7.408-2.7566-1.799-0.3273-3.078-0.6797-3.837-1.0573-0.735-0.4028-1.102-0.9189-1.102-1.5482 0-0.7553 0.354-1.3594 1.064-1.8126 0.709-0.4531 1.722-0.6797 3.039-0.6797 1.57 0 2.913 0.3021 4.027 0.9063 1.14 0.579 2.127 1.4979 2.963 2.7566l3.686-4.2293c-1.444-1.586-3.015-2.7314-4.711-3.4363-1.672-0.7049-3.698-1.0573-6.079-1.0573-2.229 0-4.167 0.3524-5.813 1.0573-1.621 0.6797-2.862 1.6363-3.723 2.8699-0.836 1.2335-1.254 2.6307-1.254 4.1915s0.38 2.8447 1.14 3.8517c0.785 1.0069 1.874 1.8125 3.267 2.4167 1.419 0.579 3.204 1.0825 5.357 1.5104 1.748 0.3273 2.989 0.6797 3.723 1.0573 0.76 0.3525 1.14 0.8182 1.14 1.3972 0 0.7301-0.355 1.2965-1.064 1.6993-0.684 0.3776-1.722 0.5664-3.115 0.5664-1.748 0-3.242-0.2769-4.483-0.8308-1.241-0.5538-2.356-1.5104-3.343-2.8698l-2.48 3.3607h-9.9601zm53.061-13.278-5.42 2.1763c-0.355-1.5104-0.899-2.5678-1.634-3.1719-0.734-0.6042-1.773-0.9063-3.115-0.9063-1.849 0-3.28 0.6671-4.293 2.0013-1.013 1.3091-1.52 3.2223-1.52 5.7398 0 2.5174 0.482 4.4432 1.444 5.7774 0.988 1.3091 2.406 1.9636 4.255 1.9636 1.393 0 2.495-0.3272 3.305-0.9818 0.811-0.6545 1.368-1.6866 1.672-3.0964l5.56 1.5586c-0.169-0.8943-0.254-1.867-0.254-2.918v-8.1426z" clip-rule="evenodd" fill-rule="evenodd" stroke="#fff">
  </symbol>

  <symbol id="twitter" viewBox="0 0 16 16">
	<title>Twitter icon</title>
	<path d="M5.2,14.5c-1.5,0-3.1-0.4-4.4-1.2l-1.5-0.9L1,12.3c0.9,0,1.7-0.2,2.5-0.5C1.8,10,0.8,7.7,0.8,5.1c0-1,0.1-1.9,0.4-2.9l0.3-1
	l0.6,0.9c1.1,1.8,3,2.9,5,3c0,0,0,0,0,0c0-2,1.6-3.6,3.5-3.6c1.1,0,2.2,0.6,2.8,1.6h2.7l-2.1,2.2c0,4.1-2.7,7.7-6.4,8.9
	C6.9,14.4,6,14.5,5.2,14.5z M2.8,13.1c1.5,0.5,3.1,0.5,4.7,0.1c3.4-1,5.7-4.3,5.7-8l0-0.1l0,0l0-0.2l0.7-0.8h-0.9l-0.1-0.3
	c-0.5-0.8-1.2-1.3-2.1-1.3c-1.4,0-2.5,1.2-2.5,2.6c0,0.1,0,0.3,0,0.4l0.1,0.6l-0.6,0c-0.1,0-0.2,0-0.2,0c-2.1,0-4.2-1-5.6-2.6
	C1.9,4.1,1.8,4.6,1.8,5.1c0,2.5,1.1,4.9,2.9,6.4L5.3,12l-0.7,0.3C4,12.7,3.4,12.9,2.8,13.1z" fill="currentColor"/>
  </symbol>

  <symbol id="instagram" viewBox="0 0 16 16">
	<title>Instagram icon</title>
	<path d="M11.5,16h-7C2,16,0,14,0,11.5v-7C0,2,2,0,4.5,0h7C14,0,16,2,16,4.5v7C16,14,14,16,11.5,16z M4.5,1C2.6,1,1,2.6,1,4.5v7
	C1,13.4,2.6,15,4.5,15h7c1.9,0,3.5-1.6,3.5-3.5v-7C15,2.6,13.4,1,11.5,1H4.5z M8,12c-2.2,0-4-1.8-4-4c0-2.2,1.8-4,4-4
	c2.2,0,4,1.8,4,4C12,10.2,10.2,12,8,12z M8,5C6.3,5,5,6.3,5,8s1.3,3,3,3s3-1.3,3-3S9.7,5,8,5z M12.5,2.5c-0.6,0-1,0.4-1,1s0.4,1,1,1
	s1-0.4,1-1S13.1,2.5,12.5,2.5z" fill="curretnColor"/>
  </symbol>

  <symbol id="dribbble" viewBox="0 0 16 16">
	<title>Dribbble icon</title>
	<path d="M8,0C3.6,0,0,3.6,0,8s3.6,8,8,8s8-3.6,8-8S12.4,0,8,0z M15,8c-1.9-0.4-3.6-0.4-5-0.2c-0.2-0.5-0.5-1-0.7-1.5
	c1.6-0.6,3-1.5,4-2.9C14.4,4.7,15,6.3,15,8z M12.6,2.7C11.7,4,10.3,4.9,8.8,5.4c-1-1.9-2.1-3.4-2.7-4.2C6.7,1.1,7.3,1,8,1
	C9.8,1,11.4,1.7,12.6,2.7z M5.1,1.6c0.5,0.7,1.6,2.2,2.7,4.1C5.1,6.6,2.3,6.7,1.1,6.6C1.6,4.4,3.1,2.6,5.1,1.6z M1,8
	c0-0.1,0-0.2,0-0.4c0.2,0,0.4,0,0.6,0c1.5,0,4.1-0.1,6.7-0.9C8.6,7.1,8.8,7.6,9,8.1c-3.5,1-5.4,3.5-6.1,4.7C1.7,11.5,1,9.8,1,8z
	 M3.6,13.4C4.1,12.5,5.8,9.9,9.4,9c0.7,1.7,1.2,3.6,1.3,5.5C9.9,14.8,9,15,8,15C6.3,15,4.8,14.4,3.6,13.4z M11.7,14
	c-0.2-1.8-0.6-3.5-1.3-5.2c1.3-0.2,2.8-0.2,4.5,0.2C14.6,11.1,13.4,12.9,11.7,14z" fill="currentColor"/>
  </symbol>

  <symbol id="scrollup" viewBox="0 0 16 16">
	<title>Scroll up icon</title>
	<path d="M0 9L8 1L16 9" stroke-width="2" vector-effect="non-scaling-stroke"/>
  </symbol>
</svg>
