<svg width="64" height="64" fill="none" xmlns="http://www.w3.org/2000/svg"><path fill="#FF0C3A" d="M0 0h64v64H0z"/><path d="M28.532 31.96c.98-1.092 1.54-2.436 1.54-3.808 0-2.884-1.372-5.152-5.824-5.152H7v19.6h17.92c4.452 0 6.384-2.408 6.384-5.712 0-2.268-1.092-3.892-2.772-4.928zM12.04 26.64h10.388c1.372 0 2.604 0 2.604 2.016 0 2.044-1.232 2.044-2.576 2.044H12.04v-4.06zm11.648 12.068H12.04v-4.144h11.648c1.344 0 2.576 0 2.576 2.072s-1.232 2.072-2.576 2.072zM50.897 23h-15.4v19.6h5.04v-5.236h10.36c4.452 0 7.504-2.8 7.504-7.168S55.349 23 50.897 23zm-1.4 10.136h-8.96v-5.908h8.96c1.512 0 3.864 0 3.864 2.968 0 2.94-2.352 2.94-3.864 2.94z" fill="#fff"/></svg>